# xmcd
#
# Track frame offsets:
#	150
#	11846
#	26572
#	36226
#	47321
#	60210
#	74446
#	85442
#	100467
#	112448
#	125752
#	138053
#	152055
#	161125
#	174846
#	186052
#	207034
#
# Disc length: 2894 seconds
#
# Revision: 0
# Processed by: cddbd v1.4PL0 Copyright (c) Steve Scherf et al.
# Submitted via: EasyCDDAExtractor 4.6.9.1
#
DISCID=e70b4c11
DTITLE=Fernand Larocque
DYEAR=1900
DGENRE=
TTITLE0=Le Temps Des Fetes
TTITLE1=C'est Noel
TTITLE2=Tradition De Noel
TTITLE3=Reve De Noel
TTITLE4=Des Chants Joyeux
TTITLE5=Oh!Oh! Les Petits Enfants
TTITLE6=Les Couronnes De Noel
TTITLE7=Noel! Noel!
TTITLE8=ST-Nicolas
TTITLE9=Noel Dans La Vie
TTITLE10=Bon Pere Noel
TTITLE11=Noel Chez Nous
TTITLE12=La Carte Du Ciel
TTITLE13=Nos Bons Vieillards
TTITLE14=Souhait Du Jour De L'an
TTITLE15=L'hiver
TTITLE16=Les Bonhommes De Neige
EXTD=
EXTT0=
EXTT1=
EXTT2=
EXTT3=
EXTT4=
EXTT5=
EXTT6=
EXTT7=
EXTT8=
EXTT9=
EXTT10=
EXTT11=
EXTT12=
EXTT13=
EXTT14=
EXTT15=
EXTT16=
PLAYORDER=
